# xmcd
#
# Track frame offsets: 
#        150
#        16890
#        39080
#        56043
#        68385
#        97545
#        117565
#        139678
#        156480
#        167013
#
# Disc length: 2561 seconds
#
# Revision: 10
# Processed by: cddbd v1.5.2PL0 Copyright (c) Steve Scherf et al.
# Submitted via: ExactAudioCopy v1.0b6
#
DISCID=7409ff0a
DTITLE=Eagles - The Long Run
DYEAR=1979
DGENRE=Rock
TTITLE0=The Long Run
TTITLE1=I Can't Tell You Why
TTITLE2=In The City
TTITLE3=The Disco Strangler
TTITLE4=King Of Hollywood
TTITLE5=Heartache Tonight
TTITLE6=Those Shoes
TTITLE7=Teenage Jail
TTITLE8=The Greeks Don't Want No Freaks
TTITLE9=The Sad Café
EXTD=YEAR: 1979
EXTT0=
EXTT1=
EXTT2=
EXTT3=
EXTT4=
EXTT5=
EXTT6=
EXTT7=
EXTT8=
EXTT9=
PLAYORDER=
